<svg width="150" height="150" viewBox="0 0 150 150" fill="none" xmlns="http://www.w3.org/2000/svg">
<rect width="150" height="150" rx="10" fill="#FFC0CB"/>
<g filter="url(#filter0_d_2_16)">
<path d="M13 26C13 23.2386 15.2386 21 18 21H44V130H18C15.2386 130 13 127.761 13 125V26Z" fill="white"/>
<path d="M45 21V20H44H18C14.6863 20 12 22.6863 12 26V125C12 128.314 14.6863 131 18 131H44H45V130V21Z" stroke="black" stroke-width="2"/>
</g>
<g filter="url(#filter1_d_2_16)">
<path d="M106 21H132C134.761 21 137 23.2386 137 26V125C137 127.761 134.761 130 132 130H106V21Z" fill="white"/>
<path d="M106 20H105V21V130V131H106H132C135.314 131 138 128.314 138 125V26C138 22.6863 135.314 20 132 20H106Z" stroke="black" stroke-width="2"/>
</g>
<g filter="url(#filter2_d_2_16)">
<rect x="44" y="21" width="31" height="109" fill="white"/>
<rect x="43" y="20" width="33" height="111" stroke="black" stroke-width="2"/>
</g>
<g filter="url(#filter3_d_2_16)">
<rect x="75" y="21" width="31" height="109" fill="white"/>
<rect x="74" y="20" width="33" height="111" stroke="black" stroke-width="2"/>
</g>
<g filter="url(#filter4_d_2_16)">
<path d="M38 21H51V80C51 81.6569 49.6569 83 48 83H41C39.3431 83 38 81.6569 38 80V21Z" fill="black"/>
<path d="M38 20H37V21V80C37 82.2091 38.7909 84 41 84H48C50.2091 84 52 82.2091 52 80V21V20H51H38Z" stroke="black" stroke-width="2"/>
</g>
<g filter="url(#filter5_d_2_16)">
<path d="M69 21H82V80C82 81.6569 80.6569 83 79 83H72C70.3431 83 69 81.6569 69 80V21Z" fill="black"/>
<path d="M69 20H68V21V80C68 82.2091 69.7909 84 72 84H79C81.2091 84 83 82.2091 83 80V21V20H82H69Z" stroke="black" stroke-width="2"/>
</g>
<g filter="url(#filter6_d_2_16)">
<path d="M100 21H113V80C113 81.6569 111.657 83 110 83H103C101.343 83 100 81.6569 100 80V21Z" fill="black"/>
<path d="M100 20H99V21V80C99 82.2091 100.791 84 103 84H110C112.209 84 114 82.2091 114 80V21V20H113H100Z" stroke="black" stroke-width="2"/>
</g>
<path d="M33.8 103.54V118H31.1V111.68H24.31V118H21.61V103.54H24.31V109.76H31.1V103.54H33.8Z" fill="black"/>
<path d="M57.31 110.81C57.8033 110.81 58.2333 110.75 58.6 110.63C58.9667 110.503 59.27 110.327 59.51 110.1C59.7567 109.867 59.94 109.587 60.06 109.26C60.18 108.927 60.24 108.557 60.24 108.15C60.24 107.763 60.18 107.413 60.06 107.1C59.94 106.787 59.76 106.52 59.52 106.3C59.28 106.08 58.9767 105.913 58.61 105.8C58.2433 105.68 57.81 105.62 57.31 105.62H55.3V110.81H57.31ZM57.31 103.54C58.2767 103.54 59.1133 103.653 59.82 103.88C60.5267 104.107 61.11 104.423 61.57 104.83C62.03 105.237 62.37 105.723 62.59 106.29C62.8167 106.857 62.93 107.477 62.93 108.15C62.93 108.85 62.8133 109.493 62.58 110.08C62.3467 110.66 61.9967 111.16 61.53 111.58C61.0633 112 60.4767 112.327 59.77 112.56C59.07 112.793 58.25 112.91 57.31 112.91H55.3V118H52.61V103.54H57.31Z" fill="black"/>
<path d="M90.02 115.9C90.52 115.9 90.94 115.84 91.28 115.72C91.62 115.6 91.89 115.44 92.09 115.24C92.2967 115.04 92.4433 114.807 92.53 114.54C92.6233 114.273 92.67 113.99 92.67 113.69C92.67 113.377 92.62 113.097 92.52 112.85C92.42 112.597 92.2633 112.383 92.05 112.21C91.8367 112.03 91.56 111.893 91.22 111.8C90.8867 111.707 90.4833 111.66 90.01 111.66H87.3V115.9H90.02ZM87.3 105.62V109.8H89.44C90.36 109.8 91.0533 109.633 91.52 109.3C91.9933 108.967 92.23 108.437 92.23 107.71C92.23 106.957 92.0167 106.42 91.59 106.1C91.1633 105.78 90.4967 105.62 89.59 105.62H87.3ZM89.59 103.54C90.5367 103.54 91.3467 103.63 92.02 103.81C92.6933 103.99 93.2433 104.247 93.67 104.58C94.1033 104.913 94.42 105.317 94.62 105.79C94.82 106.263 94.92 106.797 94.92 107.39C94.92 107.73 94.87 108.057 94.77 108.37C94.67 108.677 94.5133 108.967 94.3 109.24C94.0933 109.507 93.8267 109.75 93.5 109.97C93.18 110.19 92.7967 110.377 92.35 110.53C94.3367 110.977 95.33 112.05 95.33 113.75C95.33 114.363 95.2133 114.93 94.98 115.45C94.7467 115.97 94.4067 116.42 93.96 116.8C93.5133 117.173 92.9633 117.467 92.31 117.68C91.6567 117.893 90.91 118 90.07 118H84.61V103.54H89.59Z" fill="black"/>
<path d="M128.45 110.77C128.45 111.83 128.273 112.803 127.92 113.69C127.567 114.577 127.07 115.34 126.43 115.98C125.79 116.62 125.02 117.117 124.12 117.47C123.22 117.823 122.22 118 121.12 118H115.61V103.54H121.12C122.22 103.54 123.22 103.72 124.12 104.08C125.02 104.433 125.79 104.93 126.43 105.57C127.07 106.203 127.567 106.963 127.92 107.85C128.273 108.737 128.45 109.71 128.45 110.77ZM125.69 110.77C125.69 109.977 125.583 109.267 125.37 108.64C125.163 108.007 124.86 107.473 124.46 107.04C124.067 106.6 123.587 106.263 123.02 106.03C122.46 105.797 121.827 105.68 121.12 105.68H118.31V115.86H121.12C121.827 115.86 122.46 115.743 123.02 115.51C123.587 115.277 124.067 114.943 124.46 114.51C124.86 114.07 125.163 113.537 125.37 112.91C125.583 112.277 125.69 111.563 125.69 110.77Z" fill="black"/>
<defs>
<filter id="filter0_d_2_16" x="8" y="17" width="47" height="125" filterUnits="userSpaceOnUse" color-interpolation-filters="sRGB">
<feFlood flood-opacity="0" result="BackgroundImageFix"/>
<feColorMatrix in="SourceAlpha" type="matrix" values="0 0 0 0 0 0 0 0 0 0 0 0 0 0 0 0 0 0 127 0" result="hardAlpha"/>
<feMorphology radius="2" operator="dilate" in="SourceAlpha" result="effect1_dropShadow_2_16"/>
<feOffset dx="3" dy="4"/>
<feGaussianBlur stdDeviation="2"/>
<feComposite in2="hardAlpha" operator="out"/>
<feColorMatrix type="matrix" values="0 0 0 0 0 0 0 0 0 0 0 0 0 0 0 0 0 0 0.25 0"/>
<feBlend mode="normal" in2="BackgroundImageFix" result="effect1_dropShadow_2_16"/>
<feBlend mode="normal" in="SourceGraphic" in2="effect1_dropShadow_2_16" result="shape"/>
</filter>
<filter id="filter1_d_2_16" x="101" y="17" width="47" height="125" filterUnits="userSpaceOnUse" color-interpolation-filters="sRGB">
<feFlood flood-opacity="0" result="BackgroundImageFix"/>
<feColorMatrix in="SourceAlpha" type="matrix" values="0 0 0 0 0 0 0 0 0 0 0 0 0 0 0 0 0 0 127 0" result="hardAlpha"/>
<feMorphology radius="2" operator="dilate" in="SourceAlpha" result="effect1_dropShadow_2_16"/>
<feOffset dx="3" dy="4"/>
<feGaussianBlur stdDeviation="2"/>
<feComposite in2="hardAlpha" operator="out"/>
<feColorMatrix type="matrix" values="0 0 0 0 0 0 0 0 0 0 0 0 0 0 0 0 0 0 0.25 0"/>
<feBlend mode="normal" in2="BackgroundImageFix" result="effect1_dropShadow_2_16"/>
<feBlend mode="normal" in="SourceGraphic" in2="effect1_dropShadow_2_16" result="shape"/>
</filter>
<filter id="filter2_d_2_16" x="39" y="17" width="47" height="125" filterUnits="userSpaceOnUse" color-interpolation-filters="sRGB">
<feFlood flood-opacity="0" result="BackgroundImageFix"/>
<feColorMatrix in="SourceAlpha" type="matrix" values="0 0 0 0 0 0 0 0 0 0 0 0 0 0 0 0 0 0 127 0" result="hardAlpha"/>
<feMorphology radius="2" operator="dilate" in="SourceAlpha" result="effect1_dropShadow_2_16"/>
<feOffset dx="3" dy="4"/>
<feGaussianBlur stdDeviation="2"/>
<feComposite in2="hardAlpha" operator="out"/>
<feColorMatrix type="matrix" values="0 0 0 0 0 0 0 0 0 0 0 0 0 0 0 0 0 0 0.25 0"/>
<feBlend mode="normal" in2="BackgroundImageFix" result="effect1_dropShadow_2_16"/>
<feBlend mode="normal" in="SourceGraphic" in2="effect1_dropShadow_2_16" result="shape"/>
</filter>
<filter id="filter3_d_2_16" x="70" y="17" width="47" height="125" filterUnits="userSpaceOnUse" color-interpolation-filters="sRGB">
<feFlood flood-opacity="0" result="BackgroundImageFix"/>
<feColorMatrix in="SourceAlpha" type="matrix" values="0 0 0 0 0 0 0 0 0 0 0 0 0 0 0 0 0 0 127 0" result="hardAlpha"/>
<feMorphology radius="2" operator="dilate" in="SourceAlpha" result="effect1_dropShadow_2_16"/>
<feOffset dx="3" dy="4"/>
<feGaussianBlur stdDeviation="2"/>
<feComposite in2="hardAlpha" operator="out"/>
<feColorMatrix type="matrix" values="0 0 0 0 0 0 0 0 0 0 0 0 0 0 0 0 0 0 0.25 0"/>
<feBlend mode="normal" in2="BackgroundImageFix" result="effect1_dropShadow_2_16"/>
<feBlend mode="normal" in="SourceGraphic" in2="effect1_dropShadow_2_16" result="shape"/>
</filter>
<filter id="filter4_d_2_16" x="33" y="17" width="29" height="78" filterUnits="userSpaceOnUse" color-interpolation-filters="sRGB">
<feFlood flood-opacity="0" result="BackgroundImageFix"/>
<feColorMatrix in="SourceAlpha" type="matrix" values="0 0 0 0 0 0 0 0 0 0 0 0 0 0 0 0 0 0 127 0" result="hardAlpha"/>
<feMorphology radius="2" operator="dilate" in="SourceAlpha" result="effect1_dropShadow_2_16"/>
<feOffset dx="3" dy="4"/>
<feGaussianBlur stdDeviation="2"/>
<feComposite in2="hardAlpha" operator="out"/>
<feColorMatrix type="matrix" values="0 0 0 0 0 0 0 0 0 0 0 0 0 0 0 0 0 0 0.25 0"/>
<feBlend mode="normal" in2="BackgroundImageFix" result="effect1_dropShadow_2_16"/>
<feBlend mode="normal" in="SourceGraphic" in2="effect1_dropShadow_2_16" result="shape"/>
</filter>
<filter id="filter5_d_2_16" x="64" y="17" width="29" height="78" filterUnits="userSpaceOnUse" color-interpolation-filters="sRGB">
<feFlood flood-opacity="0" result="BackgroundImageFix"/>
<feColorMatrix in="SourceAlpha" type="matrix" values="0 0 0 0 0 0 0 0 0 0 0 0 0 0 0 0 0 0 127 0" result="hardAlpha"/>
<feMorphology radius="2" operator="dilate" in="SourceAlpha" result="effect1_dropShadow_2_16"/>
<feOffset dx="3" dy="4"/>
<feGaussianBlur stdDeviation="2"/>
<feComposite in2="hardAlpha" operator="out"/>
<feColorMatrix type="matrix" values="0 0 0 0 0 0 0 0 0 0 0 0 0 0 0 0 0 0 0.25 0"/>
<feBlend mode="normal" in2="BackgroundImageFix" result="effect1_dropShadow_2_16"/>
<feBlend mode="normal" in="SourceGraphic" in2="effect1_dropShadow_2_16" result="shape"/>
</filter>
<filter id="filter6_d_2_16" x="95" y="17" width="29" height="78" filterUnits="userSpaceOnUse" color-interpolation-filters="sRGB">
<feFlood flood-opacity="0" result="BackgroundImageFix"/>
<feColorMatrix in="SourceAlpha" type="matrix" values="0 0 0 0 0 0 0 0 0 0 0 0 0 0 0 0 0 0 127 0" result="hardAlpha"/>
<feMorphology radius="2" operator="dilate" in="SourceAlpha" result="effect1_dropShadow_2_16"/>
<feOffset dx="3" dy="4"/>
<feGaussianBlur stdDeviation="2"/>
<feComposite in2="hardAlpha" operator="out"/>
<feColorMatrix type="matrix" values="0 0 0 0 0 0 0 0 0 0 0 0 0 0 0 0 0 0 0.25 0"/>
<feBlend mode="normal" in2="BackgroundImageFix" result="effect1_dropShadow_2_16"/>
<feBlend mode="normal" in="SourceGraphic" in2="effect1_dropShadow_2_16" result="shape"/>
</filter>
</defs>
</svg>
